<?xml version="1.0" encoding="utf-8"?>
<!-- Generator: Adobe Illustrator 25.4.1, SVG Export Plug-In . SVG Version: 6.00 Build 0)  -->
<svg version="1.1" xmlns="http://www.w3.org/2000/svg" xmlns:xlink="http://www.w3.org/1999/xlink" x="0px" y="0px"
	 viewBox="0 0 1920 1080" style="enable-background:new 0 0 1920 1080;" xml:space="preserve">
<style type="text/css">
	.st0{display:none;}
	.st1{display:inline;}
	.st2{fill:#FFFFFF;}
	.st3{fill:#3C3C78;}
	.st4{clip-path:url(#SVGID_00000183237711154995754490000014969740437229015184_);}
	.st5{fill:#FF822D;}
	
		.st6{clip-path:url(#SVGID_00000090275680158525979490000010039551040093828790_);fill:#FF822D;stroke:#3C3C78;stroke-width:32.6725;stroke-miterlimit:10;}
	.st7{fill:#3C3C78;stroke:#3C3C78;stroke-width:3.2673;stroke-miterlimit:10;}
	.st8{fill:#657FF0;stroke:#3C3C78;stroke-width:9.8018;stroke-linejoin:round;stroke-miterlimit:10;}
	.st9{fill:none;stroke:#3C3C78;stroke-width:9.8018;stroke-linejoin:round;stroke-miterlimit:10;}
	.st10{clip-path:url(#SVGID_00000003091703710102896630000016003770436156757941_);}
	.st11{clip-path:url(#SVGID_00000128479871765656756610000008775934536382637200_);}
	.st12{clip-path:url(#SVGID_00000113338319778555976450000007507780707154419629_);}
	.st13{clip-path:url(#SVGID_00000075158574648216022520000008221508411223483320_);}
	.st14{clip-path:url(#SVGID_00000022557439686857156010000000225463872450258622_);fill:#FF822D;}
	.st15{fill:#657FF0;stroke:#3B346B;stroke-width:5;stroke-linejoin:round;stroke-miterlimit:10;}
	.st16{fill:none;stroke:#3B346B;stroke-width:5;stroke-linejoin:round;stroke-miterlimit:10;}
	.st17{clip-path:url(#SVGID_00000018222962393211029640000007171866194284455831_);}
</style>
<g id="Layer_1" class="st0">
	<g class="st1">
		<g>
			<path class="st2" d="M571.37,847.17c-4.05,0-8.03-0.2-11.85-0.6c-9.45-0.98-38.23-3.98-48.3-26.56
				c-13.02-29.18,14.19-66.7,51.86-118.61c5.45-7.51,11.08-15.28,16.71-23.19c35.39-49.77,78.55-79.48,115.45-79.48
				c15.92,0,30.37,5.54,41.79,16.01c12.17,11.16,19.01,27.93,19.79,48.47c1.44,38-17.55,81.88-50.79,117.38
				C649.74,840.68,593.1,847.17,571.37,847.17z"/>
			<path class="st3" d="M695.23,615.06c11.6,0,22.09,3.77,30.74,11.71c26.45,24.27,17.49,89.92-31.88,142.65
				c-43.95,46.93-90.55,61.41-122.72,61.41c-3.57,0-6.97-0.18-10.16-0.51c-74.24-7.73-22.3-66.45,31.88-142.65
				C625.8,641.67,664.43,615.06,695.23,615.06 M695.23,582.39L695.23,582.39L695.23,582.39L695.23,582.39
				c-22.04,0-45.96,8.65-69.18,25.02c-20.96,14.77-41.56,35.98-59.59,61.32c-5.58,7.85-11.19,15.58-16.62,23.06
				c-16.63,22.92-32.33,44.56-42.91,63.72c-10.06,18.22-22.12,45.42-10.64,71.14c3.58,8.03,11.13,19.24,26.75,27
				c9.46,4.71,20.83,7.7,34.78,9.15c4.38,0.46,8.93,0.69,13.54,0.69c22.69,0,47-5.52,70.31-15.96
				c27.47-12.31,53.13-31.08,76.26-55.79c36.16-38.62,56.79-86.9,55.19-129.16c-0.95-25-9.62-45.72-25.07-59.89
				C733.58,589.41,715.31,582.39,695.23,582.39L695.23,582.39L695.23,582.39z"/>
		</g>
		<g>
			<path class="st2" d="M1248.91,847.17c-21.74,0-78.37-6.49-134.64-66.58c-33.24-35.5-52.23-79.38-50.79-117.38
				c0.78-20.55,7.62-37.31,19.79-48.47c11.42-10.47,25.86-16.01,41.79-16.01c36.9,0,80.06,29.71,115.45,79.48
				c5.63,7.91,11.26,15.68,16.71,23.19c37.67,51.92,64.88,89.43,51.86,118.61c-10.08,22.58-38.85,25.58-48.3,26.56
				C1256.94,846.97,1252.96,847.17,1248.91,847.17C1248.91,847.17,1248.91,847.17,1248.91,847.17z"/>
			<path class="st3" d="M1125.05,615.06c30.8,0,69.43,26.61,102.14,72.61c54.19,76.2,106.12,134.92,31.88,142.65
				c-3.19,0.33-6.59,0.51-10.16,0.51c-32.17,0-78.77-14.48-122.72-61.41c-49.38-52.73-58.33-118.38-31.88-142.65
				C1102.95,618.84,1113.44,615.06,1125.05,615.06 M1125.05,582.39c-20.08,0-38.35,7.02-52.83,20.31
				c-15.45,14.18-24.12,34.89-25.07,59.89c-1.6,42.26,19.03,90.55,55.19,129.16c23.14,24.71,48.79,43.48,76.26,55.79
				c23.3,10.44,47.61,15.96,70.31,15.96c4.61,0,9.17-0.23,13.54-0.69c13.95-1.45,25.33-4.45,34.78-9.15
				c15.61-7.77,23.16-18.97,26.75-27c11.48-25.72-0.58-52.92-10.64-71.14c-10.58-19.16-26.29-40.81-42.91-63.72
				c-5.43-7.48-11.04-15.21-16.62-23.06c-18.02-25.35-38.63-46.55-59.59-61.33C1171,591.04,1147.08,582.39,1125.05,582.39
				L1125.05,582.39z"/>
		</g>
		<g>
			<defs>
				<path id="SVGID_1_" d="M1126.19,769.42c48.83,52.14,100.93,64.23,132.88,60.9c74.24-7.73,22.3-66.45-31.88-142.65
					c-45.03-63.33-101.27-89.9-132.88-60.9C1067.85,651.05,1076.81,716.69,1126.19,769.42z"/>
			</defs>
			<clipPath id="SVGID_00000049199823529543920560000010330248562167760527_">
				<use xlink:href="#SVGID_1_"  style="overflow:visible;"/>
			</clipPath>
			<g style="clip-path:url(#SVGID_00000049199823529543920560000010330248562167760527_);">
				<circle class="st5" cx="1325.36" cy="910.77" r="168.67"/>
				<path class="st3" d="M1325.36,750.27c88.64,0,160.5,71.86,160.5,160.5s-71.86,160.5-160.5,160.5s-160.5-71.86-160.5-160.5
					S1236.71,750.27,1325.36,750.27 M1325.36,733.93c-23.87,0-47.03,4.68-68.84,13.9c-21.06,8.91-39.97,21.66-56.21,37.89
					c-16.24,16.24-28.98,35.15-37.89,56.21c-9.23,21.81-13.9,44.97-13.9,68.84s4.68,47.03,13.9,68.84
					c8.91,21.06,21.66,39.97,37.89,56.21c16.24,16.24,35.15,28.98,56.21,37.89c21.81,9.23,44.97,13.9,68.84,13.9
					s47.03-4.68,68.84-13.9c21.06-8.91,39.97-21.66,56.21-37.89c16.24-16.24,28.98-35.15,37.89-56.21
					c9.23-21.81,13.9-44.97,13.9-68.84s-4.68-47.03-13.9-68.84c-8.91-21.06-21.66-39.97-37.89-56.21
					c-16.24-16.24-35.15-28.98-56.21-37.89C1372.39,738.61,1349.22,733.93,1325.36,733.93L1325.36,733.93z"/>
			</g>
			<use xlink:href="#SVGID_1_"  style="overflow:visible;fill:none;stroke:#3C3C78;stroke-width:3.2673;stroke-miterlimit:10;"/>
		</g>
		<g>
			<path class="st5" d="M909.91,958.62c-67.1,0-130.19-26.13-177.64-73.58c-47.45-47.45-73.58-110.53-73.58-177.64
				c0-67.1,26.13-130.19,73.58-177.64c47.45-47.45,110.53-73.58,177.64-73.58c67.1,0,130.19,26.13,177.64,73.58
				s73.58,110.53,73.58,177.64s-26.13,130.19-73.58,177.64S977.01,958.62,909.91,958.62z"/>
			<path class="st3" d="M909.91,472.53c129.72,0,234.88,105.16,234.88,234.88s-105.16,234.88-234.88,234.88
				S675.03,837.13,675.03,707.41S780.19,472.53,909.91,472.53 M909.91,439.86c-36.1,0-71.15,7.08-104.15,21.04
				c-31.86,13.48-60.47,32.76-85.03,57.32c-24.56,24.56-43.85,53.17-57.33,85.03c-13.96,33.01-21.04,68.05-21.04,104.15
				s7.08,71.15,21.04,104.15c13.48,31.86,32.76,60.47,57.33,85.03c24.56,24.56,53.17,43.85,85.03,57.33
				c33.01,13.96,68.05,21.04,104.15,21.04s71.15-7.08,104.15-21.04c31.86-13.48,60.47-32.76,85.03-57.33
				c24.56-24.56,43.85-53.17,57.33-85.03c13.96-33.01,21.04-68.05,21.04-104.15s-7.08-71.15-21.04-104.15
				c-13.48-31.86-32.76-60.47-57.33-85.03c-24.56-24.56-53.17-43.85-85.03-57.32C981.06,446.94,946.01,439.86,909.91,439.86
				L909.91,439.86z"/>
		</g>
		<g>
			<path class="st2" d="M909.34,952.09c-20.06,0-41.26-2.85-63.03-8.48l-3.96-1.02l-2.06-3.54
				c-39.96-68.76-79.11-141.41-80.73-207.33l-0.01-0.35l0.02-0.35c2.34-48.93,22.38-105.63,64.98-183.85l2.79-5.11h164.24l2.91,4.39
				c38.51,58.2,59.97,119.13,65.63,186.26l0.05,0.62l-0.03,0.63c-3.47,79.55-47.91,146.51-87.12,205.58l-1.94,2.92l-3.35,1.03
				C949.2,949.2,929.55,952.09,909.34,952.09z"/>
			<path class="st3" d="M986.31,551.85c34.38,51.96,58.08,110.97,64.03,181.68c-3.33,76.3-45.04,139.64-85.49,200.59
				c-17.97,5.53-36.5,8.17-55.52,8.17c-19.67,0-39.88-2.82-60.57-8.17c-41.26-70.98-77.89-140.9-79.4-202.64
				c2.61-54.47,29.07-115.85,63.8-179.63H986.31 M996.85,532.25h-10.54H833.16h-11.65l-5.57,10.23
				c-43.34,79.59-63.75,137.59-66.16,188.07l-0.03,0.71l0.02,0.71c0.75,30.8,9.37,65.17,26.36,105.06
				c15.61,36.67,36.92,74.65,55.69,106.96l4.11,7.08l7.93,2.05c22.57,5.83,44.6,8.79,65.48,8.79c21.19,0,41.81-3.04,61.29-9.04
				l6.69-2.06l3.87-5.84c19.36-29.17,41.29-62.22,57.99-96.87c19.08-39.59,29.14-76.78,30.75-113.71l0.05-1.25l-0.11-1.25
				c-5.79-68.82-27.78-131.24-67.22-190.85L996.85,532.25L996.85,532.25z"/>
		</g>
		<g>
			<path class="st2" d="M917.27,669.29c-14.91,0-30.18-0.3-45.39-0.89c-70.99-2.75-144.27-12.25-217.8-28.25
				c-27.13-5.9-55.19-12-81.67-25.04c-31.41-15.45-53.58-34.07-59.7-74.68c-11.69-77.6-10.44-164.66,3.42-238.86
				c5.06-27.09,21.81-53.59,48.42-76.65c21.96-19.02,47.77-35.41,76.7-48.72c17.48-8.04,36.26-15.02,55.82-20.73
				c57.61-16.83,117-21.55,162.3-23.78c21.91-1.08,42.11-1.6,61.74-1.6c78.44,0,145.64,8.77,205.44,26.82
				c57.41,17.33,133.51,52.92,170.1,124.12c13.26,25.81,14.29,59.34,15.11,86.29c0.14,4.73,0.28,9.21,0.47,13.44
				c2.36,51.72,0.71,96.18-5.05,135.95c-2.5,17.23-5.6,35.48-13.59,52.58c-3.23,6.91-7.05,12.81-11.68,18.03
				c-20.22,22.79-48.45,31.29-73.35,38.79c-2.27,0.68-4.53,1.37-6.77,2.05c-29.83,9.16-60.52,16.89-91.21,22.98
				C1049.85,663.19,984.82,669.29,917.27,669.29z"/>
			<path class="st3" d="M921.1,149.71c67.62,0,135.21,6.5,199.78,25.98c64.05,19.33,127.75,54.8,158.32,114.31
				c13.3,25.89,12.16,63.47,13.44,91.66c2.01,43.95,1.45,88.64-4.87,132.24c-2.32,16-5.05,32.33-11.95,47.09
				c-2.51,5.37-5.34,9.66-8.59,13.32c-18.18,20.48-46.05,27.39-71.22,35.12c-29.35,9.01-59.16,16.52-89.27,22.49
				c-62.3,12.35-125.96,17.77-189.48,17.77c-14.89,0-29.77-0.3-44.63-0.87c-72.11-2.79-143.9-12.48-214.4-27.82
				c-26.21-5.7-52.97-11.56-77.18-23.47c-28.63-14.09-44.27-28.83-48.97-60.01c-11.21-74.4-10.49-158.48,3.3-232.34
				c4.83-25.87,21.97-48.09,41.99-65.42c21.59-18.7,46.14-33.81,72.06-45.73c17.18-7.9,34.98-14.42,53.12-19.73
				c51.13-14.94,104.56-20.4,157.77-23.01C880.53,150.29,900.82,149.71,921.1,149.71 M921.12,110.5v39.21V110.5
				c-19.97,0-40.48,0.53-62.71,1.63c-46.38,2.28-107.26,7.14-166.84,24.54c-20.48,5.98-40.17,13.3-58.52,21.74
				c-30.61,14.09-57.98,31.49-81.34,51.71c-13.43,11.63-24.71,24.15-33.53,37.22c-10.9,16.16-18.08,33.19-21.33,50.64
				c-7.21,38.62-11.15,79.89-11.69,122.67c-0.53,41.95,2.21,83.23,8.16,122.71c7.84,52.05,40,74.38,70.43,89.35
				c28.63,14.09,59.19,20.74,86.16,26.6c74.65,16.24,149.08,25.89,221.21,28.68c15.46,0.6,30.99,0.9,46.15,0.9
				c68.83,0,135.15-6.23,197.11-18.51c31.34-6.21,62.69-14.11,93.16-23.47c2.2-0.68,4.43-1.35,6.67-2.02
				c26.04-7.84,58.45-17.61,82.36-44.55c5.9-6.65,10.74-14.09,14.78-22.74c9.13-19.53,12.53-39.4,15.24-58.07
				c5.94-41.01,7.65-86.69,5.23-139.65c-0.19-4.08-0.32-8.49-0.46-13.15c-0.89-28.91-1.99-64.9-17.27-94.64
				c-31.44-61.2-94.33-107.51-181.87-133.93C1070.55,119.55,1001.5,110.5,921.12,110.5L921.12,110.5z"/>
		</g>
		<g>
			<defs>
				<path id="SVGID_00000143615650956464877590000000748189425952812421_" d="M1302.33,403.26c0.19,15.3-0.27,30.63-0.87,45.76
					c-1.32,33.35-3.32,69.46-19.78,99.35c-20.56,37.33-59,52.92-97.8,64.29c-169.92,49.81-352.6,45.97-525.63,8.33
					c-31.87-6.93-64.75-16-91.06-36.15c-31.68-24.26-43.57-60.05-46.94-98.72c-5.15-59.13-5.26-124.53,15.15-180.95
					c8.95-24.75,21.97-48.09,41.99-65.42c21.59-18.7,46.14-33.81,72.06-45.73c17.18-7.9,34.98-14.42,53.12-19.72
					c51.13-14.94,104.56-20.39,157.77-23.01c87.56-4.31,176.63-0.92,260.55,24.4c64.05,19.33,127.75,54.8,158.32,114.31
					C1297.03,324.7,1301.83,363.85,1302.33,403.26z"/>
			</defs>
			<clipPath id="SVGID_00000003078054661957975720000010173488096665912234_">
				<use xlink:href="#SVGID_00000143615650956464877590000000748189425952812421_"  style="overflow:visible;"/>
			</clipPath>
			
				<polygon style="clip-path:url(#SVGID_00000003078054661957975720000010173488096665912234_);fill:#FF822D;stroke:#3C3C78;stroke-width:32.6725;stroke-miterlimit:10;" points="
				1062.2,516.53 781.22,512.76 675.03,108.38 1169.84,108.38 			"/>
		</g>
		<path class="st7" d="M1214.66,513.75c-4.25,9.82-11.98,15.03-26.04,23.14c-11.86,6.84-24.03,13.02-36.62,18.4
			c-26.4,11.27-54.13,19.28-82.21,25.09c-55.72,11.53-112.96,14.54-169.74,13.96c-57.86-0.59-116.15-6.49-172.38-20.47
			c-24.25-6.03-48.23-13.6-71.08-23.77c-24.95-11.1-47.41-15.89-52.59-45.63c-7.14-41-8.68-83.58-6.94-125.05
			c0.52-12.52,0.19-31.59,6.38-42.85c5.04-9.17,14.8-11.67,24.31-15.74c18.89-8.08,38.79-13.77,58.76-18.49
			c51-12.05,103.58-17.62,155.83-20.46c105-5.7,218.18-3.81,319.48,27.55c18.71,5.79,54.05,12.57,58.18,35.34
			c8.72,48,3.1,101.25-1.19,149.6C1218.06,502.65,1216.8,508.79,1214.66,513.75z"/>
		<path class="st5" d="M802.18,436.41c0,38.49-34.47,60.99-72.97,60.99s-72.97-22.49-72.97-60.99s34.47-63.17,72.97-63.17
			S802.18,397.92,802.18,436.41z"/>
		<g>
			<path class="st5" d="M1030.91,475.72c-7.08-0.08-14.08-2.92-19.43-8.51c-15.99-16.74-5.24-40.35,11.84-51.03
				c12.67-7.91,28.99-14.81,43.78-17.05c17.75-2.69,35.72,0.79,51.96,8.15c12.59,5.71,28.86,13.63,35.14,26.83
				c6.04,12.71,2.48,29.48-9.23,37.69c-9.12,6.4-21.4,6.26-31.09,1.21c-10.52-5.48-15.96-17.49-27.64-21.29
				c-16.31-5.3-26.46,9.24-37.8,18.02C1043.21,473.8,1037.03,475.79,1030.91,475.72z"/>
		</g>
		<g>
			<polygon class="st8" points="909.33,845.16 832.78,809.48 909.58,710.88 985.88,808.46 			"/>
			<polygon class="st8" points="909.51,917.88 832.78,828.55 909.45,866.13 987.54,828.55 			"/>
			<line class="st8" x1="909.58" y1="710.88" x2="909.33" y2="845.16"/>
			<polyline class="st9" points="832.78,809.48 909.33,778.02 985.88,808.46 			"/>
			<line class="st8" x1="909.45" y1="866.13" x2="909.51" y2="917.88"/>
		</g>
		<g>
			<defs>
				<path id="SVGID_00000103965666681357622970000005947029821876641965_" d="M694.09,769.42c-48.83,52.14-100.93,64.23-132.88,60.9
					c-74.24-7.73-22.3-66.45,31.88-142.65c45.03-63.33,101.27-89.9,132.88-60.9C752.42,651.05,743.46,716.69,694.09,769.42z"/>
			</defs>
			<clipPath id="SVGID_00000133501483303321013900000007265914465520988072_">
				<use xlink:href="#SVGID_00000103965666681357622970000005947029821876641965_"  style="overflow:visible;"/>
			</clipPath>
			<g style="clip-path:url(#SVGID_00000133501483303321013900000007265914465520988072_);">
				
					<ellipse transform="matrix(0.7071 -0.7071 0.7071 0.7071 -499.0533 616.7178)" class="st5" cx="494.92" cy="910.77" rx="168.67" ry="168.67"/>
				<g>
					<path class="st3" d="M494.92,750.27c88.64,0,160.5,71.86,160.5,160.5s-71.86,160.5-160.5,160.5
						c-88.64,0-160.5-71.86-160.5-160.5S406.27,750.27,494.92,750.27 M494.92,733.93c-23.87,0-47.03,4.68-68.84,13.9
						c-21.06,8.91-39.97,21.66-56.21,37.89c-16.24,16.24-28.98,35.15-37.89,56.21c-9.23,21.81-13.9,44.97-13.9,68.84
						s4.68,47.03,13.9,68.84c8.91,21.06,21.66,39.97,37.89,56.21c16.24,16.24,35.15,28.98,56.21,37.89
						c21.81,9.23,44.97,13.9,68.84,13.9s47.03-4.68,68.84-13.9c21.06-8.91,39.97-21.66,56.21-37.89
						c16.24-16.24,28.98-35.15,37.89-56.21c9.23-21.81,13.9-44.97,13.9-68.84s-4.68-47.03-13.9-68.84
						c-8.91-21.06-21.66-39.97-37.89-56.21c-16.24-16.24-35.15-28.98-56.21-37.89C541.94,738.61,518.78,733.93,494.92,733.93
						L494.92,733.93z"/>
				</g>
			</g>
		</g>
	</g>
</g>
<g id="Layer_2">
	<g>
		<g>
			<path class="st2" d="M1125.2,774.72c48.81,52.12,100.89,64.2,132.82,60.87c74.2-7.73,22.29-66.42-31.87-142.58
				c-45.01-63.3-101.22-89.86-132.82-60.87C1066.9,656.4,1075.85,722.02,1125.2,774.72z"/>
		</g>
		<g>
			<defs>
				<path id="SVGID_00000044892918618846608500000006488204619763616173_" d="M1125.2,774.72c48.81,52.12,100.89,64.2,132.82,60.87
					c74.2-7.73,22.29-66.42-31.87-142.58c-45.01-63.3-101.22-89.86-132.82-60.87C1066.9,656.4,1075.85,722.02,1125.2,774.72z"/>
			</defs>
			<clipPath id="SVGID_00000120544768599298731920000000935603186666364304_">
				<use xlink:href="#SVGID_00000044892918618846608500000006488204619763616173_"  style="overflow:visible;"/>
			</clipPath>
			<g style="clip-path:url(#SVGID_00000120544768599298731920000000935603186666364304_);">
				<circle class="st5" cx="1324.28" cy="916" r="160.43"/>
			</g>
		</g>
		<g>
			<path class="st2" d="M694.18,775.13c-48.81,52.12-100.89,64.2-132.82,60.87c-74.2-7.73-22.29-66.42,31.87-142.58
				c45.01-63.3,101.22-89.86,132.82-60.87C752.48,656.81,743.53,722.43,694.18,775.13z"/>
		</g>
		<g>
			
				<ellipse transform="matrix(0.7071 -0.7071 0.7071 0.7071 -237.7685 852.2714)" class="st5" cx="909.9" cy="713.15" rx="234.77" ry="234.77"/>
		</g>
		<g>
			<defs>
				
					<ellipse id="SVGID_00000139261745618400675960000012303948935777322384_" transform="matrix(0.7071 -0.7071 0.7071 0.7071 -237.7685 852.2714)" cx="909.9" cy="713.15" rx="234.77" ry="234.77"/>
			</defs>
			<clipPath id="SVGID_00000114065960798741512230000008128259950044218503_">
				<use xlink:href="#SVGID_00000139261745618400675960000012303948935777322384_"  style="overflow:visible;"/>
			</clipPath>
			<g style="clip-path:url(#SVGID_00000114065960798741512230000008128259950044218503_);">
				<path class="st2" d="M964.82,941.75c-36.54,11.25-75.36,10.52-116.04,0c-41.24-70.95-77.86-140.83-79.36-202.55
					c2.6-54.45,29.05-115.8,63.77-179.54h153.08c34.37,51.94,58.05,110.92,64.01,181.59
					C1046.94,817.52,1005.25,880.83,964.82,941.75z"/>
			</g>
		</g>
		<g>
			<defs>
				<path id="SVGID_00000047780774201413914690000002640879380418918026_" d="M964.82,939.75c-36.54,11.25-75.36,10.52-116.04,0
					c-41.24-70.95-77.86-140.83-79.36-202.55c2.6-54.45,29.05-115.8,63.77-179.54h153.08c34.37,51.94,58.05,110.92,64.01,181.59
					C1046.94,815.52,1005.25,878.83,964.82,939.75z"/>
			</defs>
			<clipPath id="SVGID_00000122696006583368348120000018019583690954285758_">
				<use xlink:href="#SVGID_00000047780774201413914690000002640879380418918026_"  style="overflow:visible;"/>
			</clipPath>
			<g style="clip-path:url(#SVGID_00000122696006583368348120000018019583690954285758_);">
				<defs>
					<path id="SVGID_00000005981547208289614950000016525863302986943623_" d="M1267.05,617.85c-18.17,20.47-46.03,27.38-71.18,35.1
						c-29.33,9.01-59.13,16.51-89.23,22.48c-76.87,15.24-155.81,19.91-234.01,16.89c-72.08-2.79-143.84-12.48-214.3-27.81
						c-26.2-5.7-52.94-11.55-77.15-23.46c-28.62-14.08-44.25-28.82-48.95-59.98c-11.2-74.37-10.49-158.41,3.3-232.23
						c4.83-25.86,21.96-48.07,41.97-65.39c21.58-18.69,46.12-33.79,72.03-45.71c17.17-7.9,34.96-14.42,53.1-19.72
						c51.11-14.93,104.51-20.39,157.7-23c87.52-4.31,176.54-0.92,260.43,24.39c64.02,19.32,127.69,54.77,158.25,114.26
						c13.3,25.88,12.15,63.44,13.44,91.62c2.01,43.93,1.45,88.59-4.87,132.18c-2.32,15.99-5.05,32.32-11.95,47.07
						C1273.13,609.9,1270.3,614.19,1267.05,617.85z"/>
				</defs>
				
					<radialGradient id="SVGID_00000127763906012943086910000015348349994489838211_" cx="908.9735" cy="443.311" r="324.257" gradientTransform="matrix(6.123234e-17 1 -3 1.836970e-16 2238.9065 -465.6625)" gradientUnits="userSpaceOnUse">
					<stop  offset="0" style="stop-color:#000000"/>
					<stop  offset="0.261" style="stop-color:#020202;stop-opacity:0.9255"/>
					<stop  offset="0.3551" style="stop-color:#090909;stop-opacity:0.8986"/>
					<stop  offset="0.4221" style="stop-color:#141414;stop-opacity:0.8795"/>
					<stop  offset="0.4763" style="stop-color:#252525;stop-opacity:0.864"/>
					<stop  offset="0.5228" style="stop-color:#3B3B3B;stop-opacity:0.8507"/>
					<stop  offset="0.5639" style="stop-color:#575757;stop-opacity:0.839"/>
					<stop  offset="0.6011" style="stop-color:#777777;stop-opacity:0.8284"/>
					<stop  offset="0.6353" style="stop-color:#9D9D9D;stop-opacity:0.8186"/>
					<stop  offset="0.6671" style="stop-color:#C8C8C8;stop-opacity:0.8095"/>
					<stop  offset="0.6953" style="stop-color:#F6F6F6;stop-opacity:0.8015"/>
					<stop  offset="0.7005" style="stop-color:#FFFFFF;stop-opacity:0.8"/>
				</radialGradient>
				
					<use xlink:href="#SVGID_00000005981547208289614950000016525863302986943623_"  style="overflow:visible;fill:url(#SVGID_00000127763906012943086910000015348349994489838211_);"/>
				<clipPath id="SVGID_00000042003565067443653080000008952939815856691384_">
					<use xlink:href="#SVGID_00000005981547208289614950000016525863302986943623_"  style="overflow:visible;"/>
				</clipPath>
			</g>
		</g>
		<g>
			<path class="st2" d="M1267.06,580.12c-18.17,20.47-46.03,27.38-71.18,35.1c-29.33,9.01-59.13,16.51-89.23,22.48
				c-76.87,15.24-155.81,19.91-234.01,16.89c-72.08-2.79-143.83-12.48-214.3-27.81c-26.2-5.7-52.94-11.55-77.15-23.46
				c-28.62-14.08-44.25-28.82-48.95-59.98c-11.2-74.37-10.49-158.41,3.3-232.23c4.83-25.86,21.96-48.07,41.97-65.39
				c21.58-18.69,46.12-33.79,72.03-45.71c17.17-7.9,34.96-14.42,53.1-19.72c51.11-14.93,104.51-20.39,157.7-23
				c87.52-4.31,176.54-0.92,260.43,24.39c64.02,19.32,127.69,54.77,158.25,114.26c13.3,25.88,12.15,63.44,13.44,91.62
				c2,43.93,1.45,88.59-4.87,132.18c-2.32,15.99-5.05,32.32-11.95,47.07C1273.13,572.17,1270.3,576.46,1267.06,580.12z"/>
		</g>
		<g>
			<defs>
				<path id="SVGID_00000075153061769667600390000014145763730851984819_" d="M1302.13,409.14c0.19,15.29-0.27,30.62-0.87,45.74
					c-1.32,33.33-3.32,69.42-19.77,99.31c-20.55,37.31-58.97,52.89-97.76,64.26c-169.84,49.79-352.44,45.95-525.38,8.33
					c-31.86-6.93-64.72-15.99-91.02-36.13c-31.66-24.25-43.55-60.02-46.92-98.67c-5.15-59.1-5.26-124.47,15.14-180.86
					c8.95-24.74,21.96-48.07,41.97-65.39c21.58-18.69,46.12-33.79,72.03-45.71c17.17-7.9,34.96-14.42,53.1-19.72
					c51.11-14.93,104.51-20.39,157.7-23c87.52-4.31,176.54-0.92,260.43,24.39c64.02,19.32,127.69,54.77,158.25,114.26
					C1296.84,330.61,1301.64,369.75,1302.13,409.14z"/>
			</defs>
			<clipPath id="SVGID_00000068667403544635282440000004389721583217880226_">
				<use xlink:href="#SVGID_00000075153061769667600390000014145763730851984819_"  style="overflow:visible;"/>
			</clipPath>
			<polygon style="clip-path:url(#SVGID_00000068667403544635282440000004389721583217880226_);fill:#FF822D;" points="
				1062.12,514.35 781.27,510.59 675.13,106.4 1169.7,106.4 			"/>
		</g>
		<path class="st7" d="M1213.5,520.58c-4.25,9.82-11.98,15.02-26.03,23.13c-11.85,6.84-24.02,13.02-36.61,18.39
			c-26.39,11.26-54.1,19.27-82.17,25.08c-55.69,11.52-112.91,14.54-169.66,13.96c-57.83-0.59-116.1-6.49-172.3-20.46
			c-24.24-6.03-48.2-13.6-71.04-23.76c-24.94-11.1-47.39-15.88-52.57-45.61c-7.14-40.98-8.67-83.55-6.94-124.99
			c0.52-12.51,0.19-31.58,6.37-42.83c5.04-9.17,14.79-11.66,24.3-15.73c18.88-8.08,38.77-13.77,58.73-18.48
			c50.98-12.04,103.53-17.62,155.76-20.45c104.96-5.7,218.07-3.81,319.33,27.54c18.71,5.79,54.02,12.56,58.15,35.32
			c8.71,47.98,3.1,101.2-1.19,149.53C1216.91,509.49,1215.65,515.62,1213.5,520.58z"/>
		<path class="st5" d="M802.21,442.28c0,38.48-34.46,60.96-72.93,60.96s-72.93-22.48-72.93-60.96s34.46-63.14,72.93-63.14
			S802.21,403.8,802.21,442.28z"/>
		<g>
			<path class="st5" d="M1030.84,481.57c-7.08-0.08-14.07-2.91-19.42-8.51c-15.99-16.74-5.24-40.34,11.84-51
				c12.66-7.91,28.98-14.8,43.76-17.04c17.74-2.69,35.71,0.79,51.94,8.15c12.59,5.7,28.85,13.62,35.12,26.82
				c6.04,12.7,2.48,29.47-9.22,37.68c-9.12,6.39-21.39,6.26-31.08,1.21c-10.51-5.48-15.95-17.48-27.63-21.28
				c-16.3-5.3-26.45,9.23-37.78,18.01C1043.14,479.65,1036.96,481.64,1030.84,481.57z"/>
		</g>
		<g>
			<polygon class="st15" points="909.32,850.83 832.81,815.17 909.57,716.61 985.84,814.15 			"/>
			<polygon class="st15" points="909.49,923.52 832.81,834.23 909.44,871.79 987.49,834.23 			"/>
			<line class="st15" x1="909.57" y1="716.61" x2="909.32" y2="850.83"/>
			<polyline class="st16" points="832.81,815.17 909.32,783.72 985.84,814.15 			"/>
			<line class="st15" x1="909.44" y1="871.79" x2="909.49" y2="923.52"/>
		</g>
		<g>
			<defs>
				<path id="SVGID_00000160908240966580837160000011840856677243841697_" d="M694.18,775.13c-48.81,52.12-100.89,64.2-132.82,60.87
					c-74.2-7.73-22.29-66.42,31.87-142.58c45.01-63.3,101.22-89.86,132.82-60.87C752.48,656.81,743.53,722.43,694.18,775.13z"/>
			</defs>
			<clipPath id="SVGID_00000031209296652909428380000010619596982914410370_">
				<use xlink:href="#SVGID_00000160908240966580837160000011840856677243841697_"  style="overflow:visible;"/>
			</clipPath>
			<g style="clip-path:url(#SVGID_00000031209296652909428380000010619596982914410370_);">
				<circle class="st5" cx="495.1" cy="916.41" r="160.43"/>
			</g>
		</g>
	</g>
</g>
</svg>
